{"title":"Whose.Line.is.it.Anyway.US.S10E04.720p.HDTV.x264-BAJSKORV","uid":9893555,"size":584090206,"categoryP":"video","categoryS":"hd___tv_shows","magnet":"?xt=urn:btih:42366a9dcbe140892ca57a6e5d8abc102f646763&amp;dn=Whose.Line.is.it.Anyway.US.S10E04.720p.HDTV.x264-BAJSKORV&amp;tr=udp%3A%2F%2Ftracker.openbittorrent.com%3A80&amp;tr=udp%3A%2F%2Fopen.demonii.com%3A1337&amp;tr=udp%3A%2F%2Ftracker.coppersurfer.tk%3A6969&amp;tr=udp%3A%2F%2Fexodus.desync.com%3A6969","seeders":2,"leechers":0,"uploader":"098765432","files":-1,"time":1396670597,"description":"whose.line.is.it.anyway.us.s10e04.720p.hdtv.x264-bajskorv.mkv\nFormat                                   : Matroska\nFormat version                           : Version 4 / Version 2\nFile size                                : 531 MiB\nDuration                                 : 20mn 47s\nOverall bit rate                         : 3 570 Kbps\nEncoded date                             : UTC 2014-04-05 00:55:25\nWriting application                      : mkvmerge v6.7.0 ('Back to the Ground') 64bit built on Jan  8 2014 14:31:51\nWriting library                          : libebml v1.3.0 + libmatroska v1.4.1\n\nVideo\nID                                       : 1\nFormat                                   : AVC\nFormat/Info                              : Advanced Video Codec\nFormat profile                           : &lt;a class=&quot;__cf_email__&quot; href=&quot;/cdn-cgi/l/email-protection&quot; data-cfemail=&quot;feb6979996beb2cad0cf&quot;&gt;[email&amp;#160;protected]&lt;/a&gt;&lt;script cf-hash='f9e31' type=&quot;text/javascript&quot;&gt;\n/* &lt;![CDATA[ */!function(){try{var t=&quot;currentScript&quot;in document?document.currentScript:function(){for(var t=document.getElementsByTagName(&quot;script&quot;),e=t.length;e--;)if(t[e].getAttribute(&quot;cf-hash&quot;))return t[e]}();if(t&amp;&amp;t.previousSibling){var e,r,n,i,c=t.previousSibling,a=c.getAttribute(&quot;data-cfemail&quot;);if(a){for(e=&quot;&quot;,r=parseInt(a.substr(0,2),16),n=2;a.length-n;n+=2)i=parseInt(a.substr(n,2),16)^r,e+=String.fromCharCode(i);e=document.createTextNode(e),c.parentNode.replaceChild(e,c)}}}catch(u){}}();/* ]]&gt; */&lt;/script&gt;\nFormat settings, CABAC                   : Yes\nFormat settings, ReFrames                : 5 frames\nCodec ID                                 : V_MPEG4/ISO/AVC\nDuration                                 : 20mn 47s\nBit rate                                 : 3 115 Kbps\nWidth                                    : 1 280 pixels\nHeight                                   : 720 pixels\nDisplay aspect ratio                     : 16:9\nFrame rate mode                          : Constant\nFrame rate                               : 59.880 fps\nOriginal frame rate                      : 59.940 fps\nColor space                              : YUV\nChroma subsampling                       : 4:2:0\nBit depth                                : 8 bits\nScan type                                : Progressive\nBits/(Pixel*Frame)                       : 0.056\nStream size                              : 463 MiB (87%)\nWriting library                          : x264 core 142 r2409 d6b4e63\n\n\nAudio\nID                                       : 2\nFormat                                   : AC-3\nFormat/Info                              : Audio Coding 3\nMode extension                           : CM (complete main)\nFormat settings, Endianness              : Big\nCodec ID                                 : A_AC3\nDuration                                 : 20mn 47s\nBit rate mode                            : Constant\nBit rate                                 : 384 Kbps\nChannel(s)                               : 6 channels\nChannel positions                        : Front: L C R, Side: L R, LFE\nSampling rate                            : 48.0 KHz\nBit depth                                : 16 bits\nCompression mode                         : Lossy\nDelay relative to video                  : -33ms\nStream size                              : 57.1 MiB (11%)\nDefault                                  : Yes\nForced                                   : No","torrent":{"xt":"urn:btih:42366a9dcbe140892ca57a6e5d8abc102f646763","amp;dn":"Whose.Line.is.it.Anyway.US.S10E04.720p.HDTV.x264-BAJSKORV","amp;tr":["udp%3A%2F%2Ftracker.openbittorrent.com%3A80","udp%3A%2F%2Fopen.demonii.com%3A1337","udp%3A%2F%2Ftracker.coppersurfer.tk%3A6969","udp%3A%2F%2Fexodus.desync.com%3A6969"],"infoHash":"42366a9dcbe140892ca57a6e5d8abc102f646763","infoHashBuffer":{"type":"Buffer","data":[66,54,106,157,203,225,64,137,44,165,122,110,93,138,188,16,47,100,103,99]},"announce":[],"urlList":[]}}